<svg width="30" height="30" viewBox="0 0 30 30" fill="none" xmlns="http://www.w3.org/2000/svg">
<g id="akar-icons:dashboard">
<path id="Vector" d="M2.5 6.25C2.5 5.58696 2.76339 4.95107 3.23223 4.48223C3.70107 4.01339 4.33696 3.75 5 3.75H12.5V26.25H5C4.33696 26.25 3.70107 25.9866 3.23223 25.5178C2.76339 25.0489 2.5 24.413 2.5 23.75V6.25ZM17.5 3.75H25C25.663 3.75 26.2989 4.01339 26.7678 4.48223C27.2366 4.95107 27.5 5.58696 27.5 6.25V12.5H17.5V3.75ZM17.5 17.5H27.5V23.75C27.5 24.413 27.2366 25.0489 26.7678 25.5178C26.2989 25.9866 25.663 26.25 25 26.25H17.5V17.5Z" stroke="white" stroke-width="2" stroke-linecap="round" stroke-linejoin="round"/>
</g>
</svg>
